<svg xmlns="http://www.w3.org/2000/svg" xmlns:xlink="http://www.w3.org/1999/xlink" width="500" zoomAndPan="magnify" viewBox="0 0 375 374.999991" height="500" preserveAspectRatio="xMidYMid meet" version="1.0"><defs><g/><clipPath id="24dba82704"><path d="M 111.539062 106.109375 L 263.789062 106.109375 L 263.789062 220.109375 L 111.539062 220.109375 Z M 111.539062 106.109375 " clip-rule="nonzero"/></clipPath></defs><g fill="#1b1f24" fill-opacity="1"><g transform="translate(120.767545, 258.900129)"><g><path d="M 11.730469 0 C 18.378906 0 19.976562 -3.382812 19.976562 -6.328125 C 19.976562 -8.699219 18.863281 -10.617188 15.890625 -11.585938 C 17.777344 -12.535156 19.039062 -14.277344 19.039062 -16.769531 C 19.039062 -19.886719 17.25 -22.496094 11.585938 -22.496094 L 2.828125 -22.496094 C 2.429688 -22.496094 2.226562 -22.289062 2.226562 -21.894531 L 2.226562 -0.601562 C 2.226562 -0.203125 2.429688 0 2.828125 0 Z M 8.214844 -17.398438 L 11.480469 -17.398438 C 13.195312 -17.398438 13.765625 -16.652344 13.765625 -15.597656 C 13.765625 -14.570312 13.195312 -13.765625 11.480469 -13.765625 L 8.214844 -13.765625 Z M 8.214844 -9.269531 L 11.613281 -9.269531 C 13.371094 -9.269531 13.972656 -8.363281 13.972656 -7.160156 C 13.972656 -6.003906 13.371094 -5.097656 11.613281 -5.097656 L 8.214844 -5.097656 Z M 8.214844 -9.269531 "/></g></g></g><g fill="#1b1f24" fill-opacity="1"><g transform="translate(147.575881, 258.900129)"><g><path d="M 12.390625 -22.496094 C 11.933594 -23.417969 11.21875 -23.417969 10.765625 -22.496094 L 0.453125 -0.71875 C 0.261719 -0.292969 0.453125 0 0.894531 0 L 6.179688 0 C 6.503906 0 6.75 -0.175781 6.867188 -0.484375 L 7.601562 -2.371094 L 15.554688 -2.371094 L 16.285156 -0.484375 C 16.402344 -0.175781 16.652344 0 16.972656 0 L 22.261719 0 C 22.699219 0 22.890625 -0.292969 22.699219 -0.71875 Z M 11.585938 -12.519531 L 13.796875 -6.867188 L 9.359375 -6.867188 Z M 11.585938 -12.519531 "/></g></g></g><g fill="#1b1f24" fill-opacity="1"><g transform="translate(176.185276, 258.900129)"><g><path d="M 10.457031 -5.097656 L 20.269531 -21.777344 C 20.515625 -22.15625 20.339844 -22.496094 19.859375 -22.496094 L 2.78125 -22.496094 C 2.402344 -22.496094 2.195312 -22.289062 2.195312 -21.894531 L 2.195312 -18 C 2.195312 -17.601562 2.402344 -17.398438 2.78125 -17.398438 L 10.648438 -17.398438 L 0.863281 -0.71875 C 0.628906 -0.335938 0.804688 0 1.289062 0 L 20.179688 0 C 20.574219 0 20.78125 -0.203125 20.78125 -0.601562 L 20.78125 -4.496094 C 20.78125 -4.890625 20.574219 -5.097656 20.179688 -5.097656 Z M 10.457031 -5.097656 "/></g></g></g><g fill="#1b1f24" fill-opacity="1"><g transform="translate(203.359688, 258.900129)"><g><path d="M 12.390625 -22.496094 C 11.933594 -23.417969 11.21875 -23.417969 10.765625 -22.496094 L 0.453125 -0.71875 C 0.261719 -0.292969 0.453125 0 0.894531 0 L 6.179688 0 C 6.503906 0 6.75 -0.175781 6.867188 -0.484375 L 7.601562 -2.371094 L 15.554688 -2.371094 L 16.285156 -0.484375 C 16.402344 -0.175781 16.652344 0 16.972656 0 L 22.261719 0 C 22.699219 0 22.890625 -0.292969 22.699219 -0.71875 Z M 11.585938 -12.519531 L 13.796875 -6.867188 L 9.359375 -6.867188 Z M 11.585938 -12.519531 "/></g></g></g><g fill="#1b1f24" fill-opacity="1"><g transform="translate(231.969081, 258.900129)"><g><path d="M 16.769531 -8.449219 C 18.980469 -9.605469 20.238281 -12.007812 20.238281 -15.261719 C 20.238281 -19.113281 18.511719 -22.496094 12.167969 -22.496094 L 2.828125 -22.496094 C 2.429688 -22.496094 2.226562 -22.289062 2.226562 -21.894531 L 2.226562 -0.601562 C 2.226562 -0.203125 2.429688 0 2.828125 0 L 7.644531 0 C 8.039062 0 8.246094 -0.203125 8.246094 -0.601562 L 8.246094 -7.675781 L 10.777344 -7.675781 L 14.394531 -0.453125 C 14.542969 -0.144531 14.761719 0 15.085938 0 L 20.546875 0 C 21 0 21.175781 -0.292969 20.972656 -0.71875 Z M 11.128906 -17.398438 C 12.332031 -17.398438 14.25 -17.398438 14.25 -15.203125 C 14.25 -12.769531 11.964844 -12.769531 11.128906 -12.769531 L 8.246094 -12.769531 L 8.246094 -17.398438 Z M 11.128906 -17.398438 "/></g></g></g><g clip-path="url(#24dba82704)"><path fill="#1b1f24" d="M 190.078125 106.109375 C 221.667969 106.109375 247.265625 131.621094 247.265625 163.101562 C 247.265625 166.773438 246.917969 170.363281 246.246094 173.84375 L 159.863281 173.84375 C 164.285156 186.222656 176.136719 195.070312 190.078125 195.070312 C 199.375 195.070312 207.75 191.132812 213.613281 184.816406 L 247.390625 184.816406 C 248.730469 181.828125 251.730469 179.742188 255.222656 179.742188 C 259.953125 179.742188 263.777344 183.566406 263.777344 188.269531 C 263.777344 192.984375 259.953125 196.796875 255.222656 196.796875 C 251.730469 196.796875 248.730469 194.707031 247.390625 191.71875 L 225.992188 191.71875 C 225.28125 189.8125 223.4375 188.460938 221.289062 188.460938 C 218.5 188.460938 216.25 190.703125 216.25 193.46875 C 216.25 196.238281 218.5 198.492188 221.289062 198.492188 C 223.4375 198.492188 225.28125 197.128906 225.992188 195.222656 L 237.328125 195.222656 C 227.027344 210.246094 209.703125 220.109375 190.078125 220.109375 C 158.492188 220.109375 132.882812 194.582031 132.882812 163.101562 C 132.882812 159.917969 133.144531 156.800781 133.664062 153.753906 L 178.0625 153.753906 C 180.210938 158.21875 184.789062 161.292969 190.078125 161.292969 C 197.4375 161.292969 203.394531 155.355469 203.394531 148.023438 C 203.394531 140.707031 197.4375 134.765625 190.078125 134.765625 C 184.789062 134.765625 180.210938 137.839844 178.0625 142.304688 L 131.246094 142.304688 C 129.65625 145.894531 126.042969 148.414062 121.839844 148.414062 C 116.160156 148.414062 111.554688 143.824219 111.554688 138.148438 C 111.554688 132.484375 116.160156 127.894531 121.839844 127.894531 C 126.042969 127.894531 129.65625 130.414062 131.246094 134 L 152.953125 134 C 153.746094 136.894531 156.398438 139.023438 159.554688 139.023438 C 163.335938 139.023438 166.394531 135.960938 166.394531 132.191406 C 166.394531 128.421875 163.335938 125.375 159.554688 125.375 C 156.398438 125.375 153.746094 127.492188 152.953125 130.382812 L 143.25 130.382812 C 153.59375 115.707031 170.707031 106.109375 190.078125 106.109375 Z M 190.078125 106.109375 " fill-opacity="1" fill-rule="evenodd"/></g></svg>