<svg id="svg" version="1.1" xmlns="http://www.w3.org/2000/svg" xmlns:xlink="http://www.w3.org/1999/xlink" width="400" height="181.60000000000002" viewBox="0, 0, 400,181.60000000000002"><g id="svgg"><path id="path0" d="M14.977 27.082 C 14.920 27.173,14.925 27.330,14.986 27.430 C 15.048 27.530,14.910 27.618,14.679 27.625 C 13.930 27.650,13.547 27.768,13.353 28.032 C 13.249 28.175,12.818 28.350,12.395 28.422 C 11.804 28.521,11.626 28.632,11.626 28.899 C 11.626 29.198,11.490 29.246,10.637 29.246 C 9.867 29.246,9.594 29.323,9.403 29.596 C 9.248 29.818,8.894 29.968,8.439 30.005 C 7.854 30.053,7.709 30.139,7.662 30.472 C 7.612 30.826,7.496 30.881,6.799 30.881 L 5.995 30.881 5.995 31.988 C 5.995 32.942,6.045 33.108,6.358 33.190 C 6.571 33.246,6.727 33.445,6.735 33.672 C 6.743 33.886,6.784 34.203,6.826 34.378 C 6.868 34.553,6.937 34.839,6.980 35.014 C 7.022 35.188,7.063 35.393,7.071 35.468 C 7.078 35.543,7.187 35.584,7.312 35.559 C 7.456 35.530,7.572 35.809,7.629 36.331 C 7.692 36.896,7.804 37.148,7.993 37.148 C 8.177 37.148,8.284 37.371,8.322 37.838 C 8.365 38.363,8.485 38.577,8.822 38.730 C 9.250 38.926,9.391 39.538,9.278 40.713 C 9.262 40.876,9.379 41.059,9.539 41.120 C 9.735 41.195,9.787 41.158,9.701 41.006 C 9.614 40.851,9.636 40.838,9.773 40.963 C 9.882 41.063,9.993 41.504,10.018 41.943 C 10.053 42.534,10.150 42.764,10.391 42.827 C 10.571 42.874,10.723 42.964,10.729 43.028 C 10.859 44.351,10.971 44.824,11.208 45.050 C 11.427 45.257,11.461 45.262,11.351 45.067 C 11.254 44.897,11.276 44.855,11.416 44.942 C 11.531 45.013,11.626 45.429,11.626 45.866 C 11.626 46.501,11.699 46.684,11.989 46.776 C 12.195 46.841,12.361 47.063,12.373 47.287 C 12.385 47.506,12.405 47.807,12.419 47.956 C 12.432 48.106,12.627 48.255,12.852 48.287 C 13.224 48.340,13.261 48.443,13.261 49.439 C 13.261 50.371,13.313 50.547,13.614 50.626 C 13.881 50.696,13.982 50.905,14.023 51.472 C 14.068 52.090,14.150 52.236,14.478 52.282 C 14.835 52.333,14.885 52.462,14.933 53.463 C 14.973 54.317,15.052 54.587,15.259 54.587 C 15.455 54.587,15.547 54.828,15.587 55.450 C 15.633 56.164,15.703 56.312,15.995 56.312 C 16.265 56.312,16.349 56.439,16.349 56.843 C 16.349 57.609,16.522 57.947,16.913 57.947 C 17.209 57.947,17.257 58.087,17.257 58.946 C 17.257 59.528,17.337 59.946,17.449 59.946 C 17.555 59.946,17.583 60.041,17.510 60.158 C 17.423 60.300,17.477 60.333,17.672 60.258 C 17.911 60.166,17.975 60.301,18.019 60.999 C 18.066 61.726,18.135 61.861,18.483 61.911 C 18.884 61.968,19.032 62.703,18.901 63.987 C 18.880 64.198,18.996 64.305,19.244 64.305 C 19.537 64.305,19.619 64.421,19.619 64.835 C 19.619 65.549,19.786 65.940,20.092 65.940 C 20.231 65.940,20.355 66.124,20.366 66.349 C 20.411 67.219,20.448 67.308,20.845 67.482 C 21.192 67.634,21.253 67.801,21.253 68.595 C 21.253 69.395,21.723 70.400,21.827 69.822 C 21.843 69.735,21.904 70.073,21.963 70.572 C 22.054 71.336,22.136 71.490,22.480 71.539 C 22.833 71.589,22.891 71.711,22.909 72.447 C 22.942 73.780,22.960 73.843,23.297 73.817 C 23.555 73.796,23.615 73.940,23.615 74.577 C 23.615 75.202,23.689 75.385,23.978 75.477 C 24.224 75.555,24.349 75.764,24.364 76.125 C 24.404 77.064,24.426 77.111,24.841 77.170 C 25.207 77.222,25.250 77.330,25.250 78.204 C 25.250 78.959,25.328 79.235,25.597 79.423 C 25.811 79.573,25.971 79.943,26.014 80.387 C 26.069 80.966,26.162 81.120,26.484 81.166 C 26.854 81.220,26.995 81.863,26.873 82.938 C 26.866 82.996,27.030 83.189,27.236 83.368 C 27.502 83.599,27.611 83.912,27.611 84.445 C 27.611 85.074,27.670 85.195,27.975 85.195 C 28.191 85.195,28.346 85.323,28.359 85.513 C 28.370 85.688,28.399 85.913,28.422 86.013 C 28.445 86.113,28.477 86.337,28.492 86.512 C 28.507 86.687,28.581 86.820,28.656 86.809 C 29.146 86.731,29.246 86.887,29.246 87.724 C 29.246 88.778,29.377 89.192,29.709 89.192 C 29.865 89.192,29.972 89.469,30.008 89.964 C 30.054 90.605,30.133 90.745,30.472 90.794 C 30.838 90.846,30.881 90.954,30.881 91.828 C 30.881 92.583,30.960 92.859,31.228 93.047 C 31.442 93.197,31.602 93.567,31.646 94.011 C 31.692 94.484,31.806 94.732,31.977 94.732 C 32.134 94.732,32.279 94.986,32.342 95.374 C 32.471 96.167,32.642 96.458,32.981 96.458 C 33.229 96.458,33.354 97.345,33.248 98.345 C 33.222 98.583,33.295 98.656,33.484 98.584 C 33.786 98.468,33.969 98.798,33.969 99.455 C 33.969 100.118,34.159 100.454,34.534 100.454 C 34.827 100.454,34.878 100.594,34.880 101.408 C 34.883 102.363,35.049 102.864,35.352 102.827 C 35.441 102.817,35.539 103.096,35.570 103.448 C 35.601 103.799,35.708 104.087,35.807 104.087 C 35.907 104.087,35.938 104.169,35.876 104.269 C 35.815 104.369,35.892 104.450,36.047 104.450 C 36.203 104.450,36.340 104.553,36.352 104.678 C 36.363 104.802,36.392 104.986,36.415 105.086 C 36.438 105.186,36.469 105.405,36.485 105.574 C 36.500 105.742,36.676 105.931,36.876 105.995 C 37.224 106.105,37.239 106.269,37.239 109.890 C 37.239 113.454,37.260 113.685,37.599 113.920 C 37.909 114.135,37.962 114.396,37.984 115.829 C 38.011 117.594,38.057 117.762,38.556 117.946 C 38.820 118.043,38.874 118.294,38.874 119.430 C 38.874 120.599,38.926 120.829,39.237 121.023 C 39.533 121.208,39.600 121.447,39.600 122.313 C 39.600 123.224,39.653 123.390,39.964 123.471 C 40.299 123.559,40.426 123.938,40.336 124.587 C 40.318 124.722,40.362 124.968,40.435 125.132 C 40.508 125.297,40.575 125.513,40.584 125.613 C 40.592 125.713,40.722 125.795,40.872 125.795 C 41.067 125.795,41.160 126.034,41.199 126.639 C 41.242 127.296,41.332 127.503,41.608 127.575 C 41.881 127.647,41.962 127.828,41.965 128.366 C 41.968 129.157,42.340 129.995,42.658 129.927 C 42.850 129.886,42.965 130.501,42.880 131.122 C 42.862 131.255,43.016 131.407,43.222 131.461 C 43.428 131.515,43.603 131.693,43.611 131.856 C 43.644 132.558,43.781 132.895,44.132 133.128 C 44.337 133.265,44.505 133.531,44.505 133.719 C 44.505 133.939,44.634 134.060,44.868 134.060 C 45.169 134.060,45.232 134.181,45.232 134.765 C 45.232 135.318,45.310 135.491,45.595 135.566 C 45.840 135.630,45.958 135.814,45.958 136.132 C 45.958 136.391,46.045 136.603,46.151 136.603 C 46.256 136.603,46.289 136.690,46.223 136.797 C 46.157 136.904,46.275 137.036,46.485 137.091 C 46.710 137.150,46.866 137.337,46.866 137.550 C 46.866 137.756,47.021 137.949,47.230 138.004 C 47.431 138.056,47.593 138.251,47.593 138.441 C 47.593 138.662,47.722 138.783,47.956 138.783 C 48.156 138.783,48.326 138.844,48.335 138.919 C 48.458 140.044,48.577 140.327,48.925 140.327 C 49.042 140.327,49.163 140.511,49.195 140.736 C 49.232 140.992,49.379 141.144,49.591 141.144 C 49.804 141.144,49.951 141.296,49.987 141.553 C 50.025 141.816,50.191 141.983,50.454 142.020 C 50.790 142.068,50.863 142.193,50.863 142.718 C 50.863 143.196,50.951 143.381,51.211 143.449 C 51.402 143.499,51.608 143.737,51.668 143.977 C 51.738 144.255,51.909 144.414,52.138 144.414 C 52.377 144.414,52.498 144.536,52.498 144.777 C 52.498 145.020,52.619 145.141,52.861 145.141 C 53.102 145.141,53.224 145.262,53.224 145.501 C 53.224 145.733,53.385 145.901,53.678 145.974 C 53.969 146.047,54.133 146.216,54.133 146.443 C 54.133 146.638,54.208 146.751,54.300 146.694 C 54.517 146.559,55.075 147.118,54.941 147.335 C 54.884 147.427,54.967 147.502,55.125 147.502 C 55.283 147.502,55.505 147.707,55.619 147.956 C 55.750 148.245,55.975 148.411,56.234 148.411 C 56.552 148.411,56.621 148.490,56.547 148.774 C 56.468 149.074,56.542 149.138,56.972 149.140 C 57.583 149.143,58.038 149.391,58.038 149.721 C 58.038 149.849,58.222 149.981,58.447 150.013 C 58.710 150.050,58.856 150.196,58.856 150.421 C 58.856 150.651,58.981 150.772,59.219 150.772 C 59.419 150.772,59.582 150.881,59.582 151.014 C 59.582 151.147,59.780 151.361,60.021 151.490 C 60.262 151.620,60.501 151.881,60.550 152.071 C 60.600 152.262,60.709 152.405,60.793 152.391 C 61.347 152.293,61.944 152.441,61.944 152.675 C 61.944 152.822,62.188 153.069,62.487 153.224 C 62.786 153.378,63.011 153.605,62.987 153.728 C 62.943 153.951,63.048 153.981,63.987 154.021 C 64.359 154.036,64.487 154.135,64.487 154.405 C 64.487 154.707,64.608 154.768,65.201 154.768 C 65.799 154.768,65.924 154.834,65.973 155.170 C 66.009 155.422,66.200 155.612,66.485 155.681 C 66.756 155.747,66.920 155.903,66.893 156.068 C 66.858 156.274,67.037 156.351,67.609 156.374 C 68.333 156.402,68.746 156.670,68.551 156.985 C 68.466 157.124,68.738 157.182,69.448 157.178 C 69.628 157.176,69.903 157.370,70.059 157.607 C 70.262 157.917,70.510 158.038,70.944 158.038 C 71.387 158.038,71.577 158.134,71.662 158.401 C 71.760 158.709,71.937 158.765,72.826 158.765 C 73.761 158.765,73.896 158.813,74.076 159.208 C 74.237 159.561,74.437 159.663,75.059 159.708 C 75.591 159.746,75.824 159.841,75.790 160.004 C 75.763 160.137,75.824 160.193,75.926 160.130 C 76.029 160.067,76.113 160.101,76.113 160.207 C 76.113 160.325,76.634 160.400,77.462 160.400 C 78.724 160.400,78.816 160.426,78.870 160.808 C 78.922 161.174,79.043 161.222,80.018 161.263 C 81.312 161.317,81.630 161.414,81.455 161.698 C 81.374 161.829,81.404 161.860,81.534 161.779 C 81.649 161.708,81.744 161.736,81.744 161.842 C 81.744 161.964,82.374 162.035,83.463 162.035 C 84.997 162.035,85.204 162.074,85.377 162.398 C 85.568 162.754,85.757 162.761,95.191 162.761 C 104.614 162.761,104.815 162.754,105.038 162.398 C 105.237 162.079,105.461 162.035,106.881 162.035 C 108.193 162.035,108.540 161.976,108.724 161.726 C 108.877 161.516,109.349 161.374,110.197 161.282 C 111.954 161.093,112.171 161.034,112.171 160.746 C 112.171 160.557,112.491 160.476,113.403 160.437 C 114.446 160.391,114.627 160.335,114.584 160.073 C 114.542 159.824,114.700 159.753,115.395 159.708 C 115.870 159.678,116.268 159.576,116.281 159.481 C 116.293 159.387,116.314 159.208,116.326 159.083 C 116.341 158.937,116.723 158.836,117.392 158.801 C 118.205 158.759,118.476 158.669,118.624 158.392 C 118.749 158.159,119.005 158.038,119.372 158.038 C 119.751 158.038,120.044 157.892,120.288 157.582 C 120.485 157.332,120.718 157.171,120.805 157.225 C 121.131 157.426,121.889 157.092,121.889 156.747 C 121.889 156.466,122.024 156.403,122.633 156.403 C 123.209 156.403,123.397 156.326,123.466 156.061 C 123.528 155.825,123.785 155.681,124.291 155.601 C 124.695 155.536,124.978 155.435,124.919 155.377 C 124.792 155.249,125.241 154.768,125.487 154.768 C 125.582 154.768,125.772 154.604,125.909 154.403 C 126.062 154.179,126.400 154.020,126.787 153.991 C 127.234 153.957,127.443 153.839,127.513 153.584 C 127.569 153.378,127.767 153.224,127.975 153.224 C 128.213 153.224,128.358 153.084,128.396 152.816 C 128.441 152.498,128.573 152.407,128.986 152.407 C 129.279 152.407,129.519 152.320,129.519 152.215 C 129.519 152.109,129.600 152.073,129.700 152.134 C 129.800 152.196,129.882 152.128,129.882 151.983 C 129.882 151.838,130.086 151.669,130.335 151.606 C 130.584 151.543,130.779 151.432,130.768 151.359 C 130.706 150.959,130.829 150.772,131.153 150.772 C 131.391 150.772,131.517 150.651,131.517 150.421 C 131.517 150.196,131.663 150.050,131.926 150.013 C 132.185 149.976,132.355 149.809,132.391 149.556 C 132.424 149.323,132.543 149.194,132.678 149.245 C 133.032 149.381,133.878 148.997,133.878 148.700 C 133.878 148.555,134.062 148.410,134.287 148.378 C 134.546 148.341,134.686 148.203,134.671 148.002 C 134.657 147.827,134.718 147.674,134.807 147.661 C 134.896 147.649,135.070 147.628,135.195 147.616 C 135.320 147.603,135.448 147.409,135.480 147.184 C 135.532 146.819,135.707 146.696,136.092 146.750 C 136.161 146.760,136.268 146.611,136.329 146.418 C 136.390 146.225,136.598 146.018,136.790 145.956 C 136.983 145.895,137.133 145.789,137.123 145.720 C 137.066 145.324,137.190 145.141,137.511 145.141 C 137.841 145.141,137.897 145.062,137.864 144.641 C 137.858 144.566,138.039 144.461,138.266 144.408 C 138.512 144.350,138.722 144.129,138.784 143.863 C 138.843 143.616,139.009 143.415,139.154 143.415 C 139.360 143.415,139.432 143.081,139.476 141.916 C 139.529 140.532,139.506 140.418,139.179 140.418 C 138.978 140.418,138.784 140.261,138.730 140.054 C 138.677 139.850,138.483 139.691,138.286 139.691 C 138.041 139.691,137.941 139.570,137.951 139.282 C 137.962 138.971,137.868 138.877,137.557 138.888 C 137.181 138.901,137.062 138.753,137.132 138.359 C 137.146 138.275,136.995 138.164,136.796 138.112 C 136.597 138.060,136.384 137.862,136.324 137.673 C 136.264 137.484,136.077 137.330,135.907 137.330 C 135.738 137.330,135.516 137.146,135.413 136.921 C 135.311 136.696,135.131 136.532,135.013 136.556 C 134.567 136.646,133.884 136.256,133.992 135.973 C 134.071 135.767,133.976 135.695,133.625 135.695 C 133.247 135.695,133.152 135.607,133.152 135.261 C 133.152 134.864,133.079 134.828,132.289 134.833 C 131.321 134.839,130.790 135.043,130.790 135.408 C 130.790 135.542,130.627 135.695,130.427 135.747 C 130.227 135.800,130.064 135.967,130.064 136.120 C 130.064 136.272,129.908 136.446,129.718 136.507 C 129.528 136.567,129.322 136.821,129.259 137.071 C 129.196 137.321,129.069 137.479,128.976 137.422 C 128.884 137.365,128.673 137.524,128.508 137.776 C 128.342 138.029,128.135 138.190,128.046 138.135 C 127.898 138.044,127.807 138.302,127.864 138.651 C 127.876 138.728,127.634 138.842,127.326 138.904 C 126.892 138.990,126.785 139.092,126.853 139.353 C 126.917 139.597,126.843 139.691,126.591 139.691 C 126.383 139.691,126.169 139.877,126.067 140.147 C 125.971 140.397,125.830 140.592,125.753 140.579 C 125.300 140.505,125.125 140.630,125.212 140.963 C 125.283 141.237,125.217 141.326,124.943 141.326 C 124.733 141.326,124.540 141.479,124.485 141.689 C 124.433 141.889,124.242 142.053,124.060 142.053 C 123.879 142.053,123.678 142.216,123.615 142.416 C 123.551 142.616,123.403 142.789,123.285 142.800 C 123.167 142.812,122.988 142.840,122.888 142.863 C 122.788 142.887,122.564 142.918,122.389 142.933 C 122.214 142.948,122.081 143.022,122.092 143.097 C 122.156 143.503,122.031 143.688,121.691 143.688 C 121.463 143.688,121.272 143.833,121.215 144.051 C 121.155 144.281,120.967 144.414,120.702 144.414 C 120.046 144.414,119.709 144.605,119.709 144.979 C 119.709 145.224,119.580 145.322,119.255 145.322 C 118.922 145.322,118.801 145.419,118.801 145.686 C 118.801 145.990,118.680 146.049,118.057 146.049 C 117.467 146.049,117.294 146.124,117.219 146.412 C 117.135 146.734,116.634 146.895,116.027 146.796 C 115.950 146.783,115.809 146.978,115.713 147.228 C 115.568 147.611,115.422 147.684,114.809 147.684 C 114.199 147.684,114.078 147.744,114.078 148.047 C 114.078 148.355,113.957 148.411,113.291 148.411 C 112.858 148.411,112.442 148.472,112.368 148.547 C 112.293 148.622,112.136 148.687,112.019 148.691 C 111.903 148.696,111.829 148.800,111.855 148.923 C 111.916 149.216,111.654 149.297,110.445 149.359 C 109.701 149.397,109.446 149.479,109.446 149.682 C 109.446 149.886,109.185 149.968,108.401 150.009 C 107.827 150.039,107.357 150.138,107.357 150.230 C 107.357 150.559,106.613 150.782,105.241 150.862 C 103.935 150.939,103.422 151.157,103.656 151.535 C 103.729 151.653,97.470 151.796,96.685 151.694 C 96.560 151.678,96.458 151.831,96.458 152.036 C 96.458 152.597,94.120 152.595,93.769 152.034 C 93.641 151.828,93.396 151.674,93.226 151.691 C 91.609 151.853,86.671 151.651,86.757 151.426 C 86.924 150.992,86.440 150.884,83.878 150.784 C 83.703 150.778,83.560 150.649,83.560 150.500 C 83.560 150.350,83.479 150.217,83.379 150.204 C 83.279 150.192,83.115 150.161,83.015 150.136 C 82.916 150.111,82.295 150.081,81.636 150.068 C 80.601 150.049,80.425 149.996,80.343 149.682 C 80.269 149.399,80.096 149.319,79.555 149.319 C 79.021 149.319,78.835 149.235,78.747 148.955 C 78.683 148.756,78.535 148.580,78.416 148.565 C 78.298 148.549,78.120 148.518,78.020 148.495 C 77.920 148.471,77.524 148.443,77.140 148.431 C 76.605 148.415,76.420 148.326,76.347 148.047 C 76.273 147.765,76.099 147.684,75.568 147.684 C 75.039 147.684,74.862 147.602,74.790 147.326 C 74.724 147.073,74.481 146.933,73.967 146.851 C 73.466 146.771,73.210 146.627,73.148 146.392 C 73.079 146.126,72.891 146.049,72.315 146.049 C 71.701 146.049,71.571 145.988,71.571 145.698 C 71.571 145.473,71.425 145.327,71.163 145.290 C 70.938 145.258,70.754 145.126,70.754 144.998 C 70.754 144.672,70.301 144.420,69.709 144.417 C 69.332 144.415,69.210 144.325,69.210 144.051 C 69.210 143.784,69.089 143.688,68.756 143.688 C 68.423 143.688,68.302 143.591,68.302 143.324 C 68.302 143.090,68.173 142.953,67.938 142.938 C 67.738 142.926,67.493 142.895,67.393 142.870 C 67.293 142.845,67.139 142.814,67.051 142.802 C 66.963 142.790,66.848 142.616,66.796 142.416 C 66.739 142.199,66.548 142.053,66.320 142.053 C 66.061 142.053,65.940 141.937,65.940 141.689 C 65.940 141.430,65.819 141.326,65.517 141.326 C 65.195 141.326,65.097 141.228,65.108 140.917 C 65.118 140.626,65.005 140.492,64.714 140.451 C 64.489 140.419,64.305 140.274,64.305 140.128 C 64.305 139.983,64.096 139.784,63.840 139.687 C 63.584 139.590,63.418 139.440,63.471 139.355 C 63.524 139.269,63.365 139.107,63.119 138.995 C 62.872 138.883,62.670 138.666,62.670 138.514 C 62.670 138.362,62.592 138.238,62.496 138.238 C 62.400 138.238,62.114 138.014,61.860 137.740 C 61.606 137.467,61.389 137.323,61.377 137.422 C 61.365 137.521,61.304 137.357,61.240 137.057 C 61.161 136.686,61.000 136.495,60.735 136.457 C 60.521 136.426,60.304 136.242,60.254 136.048 C 60.203 135.854,60.031 135.695,59.872 135.695 C 59.616 135.695,59.506 135.496,59.555 135.123 C 59.563 135.058,59.369 134.954,59.123 134.892 C 58.877 134.831,58.685 134.720,58.697 134.647 C 58.758 134.247,58.635 134.060,58.311 134.060 C 58.068 134.060,57.947 133.939,57.947 133.697 C 57.947 133.454,57.826 133.333,57.584 133.333 C 57.296 133.333,57.220 133.211,57.218 132.743 C 57.215 132.156,57.013 131.653,56.792 131.683 C 56.411 131.734,56.312 131.659,56.312 131.318 C 56.312 131.091,56.167 130.900,55.949 130.843 C 55.674 130.771,55.586 130.595,55.586 130.116 C 55.586 129.637,55.498 129.462,55.223 129.390 C 55.023 129.337,54.849 129.222,54.837 129.134 C 54.824 129.046,54.793 128.892,54.768 128.792 C 54.743 128.692,54.713 128.439,54.700 128.230 C 54.687 128.015,54.520 127.809,54.314 127.755 C 54.106 127.700,53.951 127.507,53.951 127.301 C 53.951 127.098,53.797 126.901,53.598 126.849 C 53.344 126.783,53.228 126.570,53.189 126.094 C 53.145 125.566,53.051 125.420,52.725 125.373 C 52.371 125.323,52.316 125.207,52.316 124.511 C 52.316 123.827,52.261 123.706,51.953 123.706 C 51.623 123.706,51.417 122.615,51.568 121.662 C 51.588 121.534,51.306 121.456,50.999 121.504 C 50.924 121.516,50.856 121.301,50.848 121.026 C 50.833 120.539,50.783 120.175,50.631 119.437 C 50.590 119.237,50.441 119.074,50.301 119.074 C 50.147 119.074,50.023 118.845,49.990 118.498 C 49.944 118.025,49.993 117.933,50.262 117.984 C 50.443 118.019,50.652 118.053,50.727 118.061 C 50.802 118.068,50.863 118.242,50.863 118.446 C 50.863 118.650,50.965 118.804,51.090 118.788 C 51.947 118.676,52.498 118.819,52.498 119.153 C 52.498 119.432,52.670 119.531,53.324 119.629 C 53.778 119.697,54.109 119.794,54.059 119.844 C 53.944 119.959,54.427 120.451,54.622 120.418 C 55.140 120.330,55.577 120.484,55.673 120.789 C 55.755 121.047,55.982 121.158,56.506 121.198 C 56.903 121.228,57.205 121.313,57.179 121.386 C 57.122 121.541,57.858 122.089,58.074 122.053 C 58.823 121.925,59.582 122.102,59.582 122.404 C 59.582 122.688,59.752 122.744,60.714 122.779 C 61.742 122.816,62.006 122.929,62.174 123.406 C 62.226 123.554,62.946 123.669,63.966 123.694 C 64.282 123.702,64.476 123.826,64.537 124.061 C 64.619 124.373,64.819 124.424,66.148 124.470 C 67.352 124.512,67.666 124.579,67.666 124.796 C 67.666 125.013,67.985 125.079,69.243 125.120 C 70.715 125.169,70.825 125.200,70.878 125.575 C 70.942 126.024,70.891 126.016,73.887 126.048 C 75.444 126.064,75.749 126.114,75.749 126.350 C 75.749 126.506,75.831 126.583,75.931 126.521 C 76.031 126.460,76.113 126.497,76.113 126.604 C 76.113 126.741,79.607 126.796,87.829 126.791 C 99.367 126.784,99.546 126.778,99.546 126.425 C 99.546 126.092,99.683 126.066,101.499 126.046 C 102.573 126.035,103.533 126.006,103.633 125.983 C 103.733 125.960,103.907 125.928,104.021 125.913 C 104.134 125.898,104.269 125.722,104.321 125.522 C 104.411 125.180,106.317 124.984,107.947 125.149 C 108.158 125.171,108.265 125.055,108.265 124.807 C 108.265 124.466,108.374 124.432,109.463 124.432 C 110.508 124.432,110.673 124.386,110.756 124.069 C 110.818 123.829,111.013 123.699,111.329 123.686 C 111.592 123.676,111.930 123.649,112.080 123.627 C 112.230 123.604,112.536 123.572,112.761 123.555 C 113.038 123.534,113.170 123.407,113.170 123.161 C 113.170 122.835,113.291 122.797,114.351 122.797 C 115.410 122.797,115.531 122.760,115.531 122.434 C 115.531 122.125,115.652 122.071,116.338 122.071 C 116.782 122.071,117.196 121.988,117.259 121.886 C 117.322 121.785,117.455 121.752,117.554 121.814 C 117.654 121.875,117.781 121.754,117.835 121.544 C 117.916 121.237,118.076 121.163,118.658 121.163 C 119.227 121.163,119.400 121.086,119.475 120.799 C 119.549 120.515,119.723 120.436,120.272 120.436 C 120.860 120.436,120.992 120.366,121.082 120.004 C 121.142 119.767,121.287 119.575,121.404 119.579 C 122.539 119.611,122.838 119.519,122.745 119.164 C 122.664 118.854,122.739 118.801,123.269 118.801 C 123.609 118.801,123.887 118.715,123.887 118.609 C 123.887 118.503,123.969 118.467,124.069 118.529 C 124.169 118.590,124.251 118.552,124.251 118.444 C 124.251 118.336,124.455 118.169,124.705 118.074 C 124.977 117.971,125.159 117.758,125.159 117.544 C 125.159 117.254,125.303 117.177,125.931 117.131 C 126.536 117.087,126.698 117.007,126.678 116.757 C 126.660 116.536,126.785 116.440,127.086 116.440 C 127.398 116.440,127.520 116.338,127.520 116.080 C 127.520 115.736,128.216 115.396,128.717 115.495 C 128.825 115.516,129.010 115.324,129.126 115.068 C 129.243 114.812,129.411 114.648,129.500 114.703 C 129.660 114.801,129.967 114.299,129.911 114.033 C 129.895 113.958,129.943 113.909,130.018 113.925 C 130.300 113.985,130.790 113.666,130.790 113.423 C 130.790 113.284,130.954 113.170,131.153 113.170 C 131.419 113.170,131.517 113.049,131.517 112.721 C 131.517 112.426,131.598 112.304,131.755 112.364 C 131.887 112.415,132.104 112.251,132.238 111.998 C 132.373 111.747,132.625 111.496,132.798 111.441 C 132.971 111.386,133.157 111.172,133.211 110.966 C 133.265 110.759,133.384 110.637,133.476 110.694 C 133.668 110.812,134.060 110.045,134.060 109.549 C 134.060 109.366,134.223 109.173,134.423 109.121 C 134.623 109.069,134.787 108.901,134.787 108.749 C 134.787 108.596,134.950 108.419,135.150 108.356 C 135.432 108.266,135.513 108.081,135.513 107.526 C 135.513 106.947,135.578 106.812,135.857 106.812 C 136.249 106.812,136.421 106.474,136.421 105.707 C 136.421 105.298,136.504 105.177,136.785 105.177 C 137.111 105.177,137.148 105.056,137.148 103.996 C 137.148 102.950,137.188 102.816,137.499 102.816 C 138.036 102.816,138.061 102.524,137.985 97.269 C 137.904 91.683,137.924 91.895,137.481 91.780 C 137.222 91.712,137.148 91.516,137.148 90.896 C 137.148 90.221,137.093 90.100,136.785 90.100 C 136.438 90.100,136.294 89.560,136.409 88.689 C 136.425 88.563,136.373 88.470,136.294 88.484 C 135.690 88.585,135.532 88.432,135.478 87.693 C 135.434 87.088,135.354 86.926,135.104 86.946 C 134.900 86.962,134.787 86.843,134.787 86.611 C 134.787 86.408,134.634 86.211,134.436 86.160 C 134.195 86.096,134.048 85.844,133.964 85.347 C 133.897 84.950,133.800 84.668,133.748 84.720 C 133.632 84.836,133.152 84.376,133.152 84.149 C 133.152 84.059,132.951 83.878,132.706 83.747 C 132.461 83.616,132.267 83.459,132.274 83.398 C 132.309 83.097,132.229 82.836,132.107 82.855 C 131.709 82.918,131.517 82.797,131.517 82.483 C 131.517 82.259,131.369 82.110,131.108 82.070 C 130.883 82.036,130.720 81.907,130.745 81.785 C 130.770 81.662,130.704 81.562,130.598 81.562 C 130.492 81.562,130.456 81.480,130.518 81.381 C 130.579 81.281,130.503 81.199,130.348 81.199 C 130.193 81.199,129.965 81.035,129.840 80.836 C 129.691 80.597,129.416 80.472,129.040 80.472 C 128.582 80.472,128.445 80.382,128.354 80.019 C 128.292 79.770,128.181 79.575,128.108 79.587 C 127.708 79.648,127.520 79.525,127.520 79.201 C 127.520 78.966,127.399 78.837,127.178 78.837 C 126.989 78.837,126.794 78.675,126.741 78.474 C 126.666 78.185,126.493 78.111,125.903 78.111 C 125.289 78.111,125.159 78.050,125.159 77.760 C 125.159 77.567,125.004 77.360,124.815 77.300 C 124.626 77.240,124.429 77.027,124.377 76.828 C 124.325 76.629,124.214 76.478,124.130 76.492 C 123.549 76.595,122.797 76.443,122.797 76.223 C 122.797 75.957,122.462 75.774,121.712 75.631 C 121.194 75.533,121.072 75.440,121.072 75.144 C 121.072 75.024,120.735 74.908,120.300 74.876 C 119.805 74.840,119.528 74.733,119.528 74.578 C 119.528 74.282,119.129 74.114,118.423 74.114 C 118.024 74.114,117.893 74.029,117.893 73.771 C 117.893 73.337,117.552 73.206,116.425 73.206 C 115.652 73.206,115.531 73.157,115.531 72.843 C 115.531 72.517,115.410 72.480,114.351 72.480 C 113.313 72.480,113.170 72.438,113.170 72.136 C 113.170 71.704,112.829 71.571,111.723 71.571 C 111.003 71.571,110.834 71.508,110.756 71.208 C 110.670 70.880,110.508 70.845,109.100 70.845 C 107.660 70.845,107.539 70.817,107.539 70.481 C 107.539 70.114,107.225 70.066,104.678 70.045 C 104.454 70.043,104.280 69.957,104.291 69.853 C 104.354 69.278,104.232 69.245,101.966 69.221 C 99.891 69.200,99.637 69.162,99.410 68.838 C 99.015 68.274,75.766 68.287,75.619 68.852 C 75.533 69.181,75.363 69.210,73.472 69.210 C 71.282 69.210,70.845 69.287,70.845 69.675 C 70.845 69.897,70.092 70.112,69.391 70.090 C 67.927 70.044,67.029 70.197,66.930 70.509 C 66.841 70.790,66.632 70.845,65.655 70.845 C 64.608 70.845,64.487 70.882,64.487 71.208 C 64.487 71.552,63.598 71.723,62.534 71.585 C 62.409 71.569,62.212 71.763,62.096 72.017 C 61.905 72.437,61.786 72.480,60.808 72.480 C 59.883 72.480,59.716 72.531,59.635 72.843 C 59.559 73.132,59.376 73.211,58.744 73.229 C 57.695 73.259,57.640 73.269,57.463 73.462 C 57.373 73.560,57.423 73.568,57.584 73.481 C 57.734 73.400,57.676 73.510,57.455 73.724 C 57.201 73.972,56.823 74.114,56.423 74.114 C 55.952 74.114,55.763 74.206,55.677 74.478 C 55.588 74.759,55.402 74.841,54.859 74.841 C 54.326 74.841,54.130 74.925,54.046 75.190 C 53.972 75.423,53.698 75.578,53.217 75.660 C 52.672 75.752,52.498 75.866,52.498 76.129 C 52.498 76.403,52.367 76.476,51.872 76.476 C 51.466 76.476,51.163 76.596,51.007 76.818 C 50.876 77.005,50.606 77.190,50.407 77.228 C 50.199 77.268,50.021 77.470,49.987 77.704 C 49.934 78.077,49.387 78.251,48.638 78.132 C 48.563 78.120,48.511 78.172,48.523 78.247 C 48.587 78.653,48.461 78.837,48.121 78.837 C 47.894 78.837,47.703 78.983,47.646 79.201 C 47.593 79.401,47.410 79.564,47.239 79.564 C 47.067 79.564,46.866 79.625,46.791 79.700 C 46.716 79.775,46.580 79.837,46.488 79.837 C 46.396 79.837,46.329 79.911,46.338 80.002 C 46.355 80.176,45.812 80.545,45.504 80.567 C 45.404 80.574,45.343 80.680,45.369 80.802 C 45.395 80.924,45.211 81.117,44.960 81.231 C 44.710 81.346,44.505 81.589,44.505 81.773 C 44.505 81.991,44.373 82.107,44.125 82.107 C 43.903 82.107,43.707 82.252,43.654 82.454 C 43.604 82.644,43.407 82.841,43.217 82.891 C 43.015 82.944,42.870 83.140,42.870 83.362 C 42.870 83.615,42.754 83.742,42.522 83.742 C 42.330 83.742,42.133 83.844,42.082 83.969 C 42.032 84.094,41.984 83.809,41.976 83.335 C 41.965 82.680,41.875 82.419,41.599 82.247 C 41.382 82.112,41.235 81.823,41.235 81.533 C 41.235 80.810,41.056 80.472,40.671 80.472 C 40.384 80.472,40.327 80.336,40.327 79.655 C 40.327 78.959,40.273 78.837,39.964 78.837 C 39.649 78.837,39.600 78.716,39.600 77.929 C 39.600 77.430,39.521 77.021,39.424 77.021 C 39.328 77.021,39.296 76.898,39.353 76.748 C 39.424 76.564,39.344 76.476,39.106 76.476 C 38.891 76.476,38.755 76.352,38.755 76.158 C 38.760 75.080,38.683 74.841,38.329 74.841 C 38.010 74.841,37.965 74.720,37.965 73.852 C 37.965 73.069,37.890 72.810,37.602 72.609 C 37.396 72.465,37.209 72.087,37.168 71.736 C 37.130 71.396,37.089 71.056,37.078 70.981 C 37.066 70.906,36.894 70.845,36.694 70.845 C 36.390 70.845,36.331 70.724,36.331 70.101 C 36.331 69.510,36.256 69.338,35.967 69.262 C 35.675 69.186,35.604 69.015,35.604 68.382 C 35.604 67.950,35.521 67.545,35.419 67.482 C 35.318 67.420,35.290 67.279,35.357 67.171 C 35.425 67.060,35.395 67.026,35.286 67.093 C 35.069 67.227,34.696 66.301,34.696 65.630 C 34.696 65.389,34.631 65.232,34.551 65.282 C 34.209 65.493,33.984 65.041,33.933 64.044 C 33.890 63.208,33.809 62.958,33.560 62.893 C 33.386 62.847,33.232 62.696,33.220 62.558 C 33.154 61.832,32.872 61.217,32.605 61.217 C 32.441 61.217,32.336 60.952,32.299 60.445 C 32.262 59.936,32.164 59.689,32.011 59.720 C 31.719 59.779,31.639 59.540,31.567 58.401 C 31.534 57.872,31.423 57.493,31.302 57.493 C 30.955 57.493,30.819 57.251,30.711 56.445 C 30.642 55.929,30.519 55.677,30.336 55.677 C 30.139 55.677,30.048 55.434,30.008 54.803 C 29.972 54.238,29.827 53.806,29.599 53.577 C 29.300 53.278,29.138 52.629,29.226 52.086 C 29.238 52.009,29.044 51.853,28.793 51.739 C 28.440 51.578,28.338 51.396,28.338 50.926 C 28.338 50.518,28.220 50.247,27.975 50.094 C 27.724 49.938,27.610 49.669,27.609 49.230 C 27.605 48.274,27.435 47.819,27.044 47.716 C 26.851 47.666,26.705 47.556,26.719 47.473 C 26.838 46.799,26.665 46.152,26.340 46.049 C 26.047 45.956,25.976 45.774,25.976 45.112 C 25.976 44.514,25.878 44.209,25.615 43.989 C 25.416 43.823,25.217 43.483,25.174 43.233 C 25.131 42.984,25.079 42.759,25.059 42.734 C 25.039 42.709,25.012 42.586,25.000 42.461 C 24.988 42.337,24.855 42.234,24.705 42.234 C 24.509 42.234,24.417 41.993,24.377 41.371 C 24.331 40.657,24.261 40.509,23.968 40.509 C 23.678 40.509,23.615 40.381,23.615 39.794 C 23.615 38.875,23.336 38.147,22.984 38.147 C 22.776 38.147,22.707 37.941,22.707 37.330 C 22.707 36.633,22.653 36.512,22.343 36.512 C 22.024 36.512,21.980 36.391,21.980 35.513 C 21.980 34.931,21.900 34.514,21.788 34.514 C 21.682 34.514,21.646 34.432,21.708 34.332 C 21.769 34.233,21.692 34.151,21.537 34.151 C 21.357 34.151,21.253 33.988,21.253 33.707 C 21.253 33.463,21.170 33.213,21.069 33.150 C 20.967 33.087,20.935 32.954,20.996 32.854 C 21.058 32.755,20.937 32.628,20.727 32.573 C 20.412 32.491,20.345 32.333,20.345 31.677 C 20.345 31.002,20.290 30.881,19.982 30.881 C 19.686 30.881,19.615 30.754,19.600 30.200 C 19.574 29.219,19.369 28.610,19.065 28.610 C 18.887 28.610,18.772 28.346,18.710 27.793 L 18.619 26.975 16.849 26.946 C 15.876 26.929,15.033 26.991,14.977 27.082 M91.991 88.238 C 92.277 88.463,92.647 88.647,92.814 88.647 C 92.981 88.647,93.440 88.943,93.834 89.306 C 94.228 89.668,94.734 90.087,94.959 90.235 C 95.184 90.384,95.368 90.606,95.368 90.728 C 95.368 90.851,95.529 91.098,95.727 91.276 C 95.924 91.455,96.139 91.774,96.206 91.986 C 96.272 92.197,96.478 92.566,96.664 92.804 C 97.169 93.450,97.171 98.371,96.667 99.022 C 96.483 99.260,96.272 99.700,96.198 100.000 C 96.125 100.300,95.929 100.677,95.762 100.838 C 95.595 100.999,95.173 101.467,94.823 101.878 C 94.473 102.289,94.098 102.628,93.988 102.630 C 93.879 102.632,93.643 102.795,93.465 102.993 C 93.286 103.190,92.969 103.406,92.759 103.472 C 92.549 103.539,92.164 103.751,91.902 103.945 C 91.253 104.425,86.035 104.374,85.677 103.884 C 85.559 103.722,85.207 103.534,84.894 103.465 C 84.117 103.294,81.381 100.594,81.381 99.998 C 81.381 99.863,81.246 99.619,81.081 99.454 C 80.681 99.053,80.488 97.963,80.488 96.094 C 80.488 94.226,80.681 93.135,81.081 92.735 C 81.246 92.570,81.381 92.285,81.381 92.101 C 81.381 91.396,84.388 88.465,85.111 88.465 C 85.233 88.465,85.430 88.347,85.550 88.203 C 86.078 87.567,91.173 87.594,91.991 88.238 " stroke="none" fill="#8c4484" fill-rule="evenodd"></path><path id="path1" d="M87.103 88.276 C 84.335 89.095,82.445 90.807,81.383 93.458 C 79.080 99.204,85.215 105.539,91.147 103.540 C 93.092 102.885,95.526 100.728,95.962 99.273 C 96.022 99.074,96.195 98.583,96.347 98.183 C 97.011 96.438,96.542 93.225,95.424 91.857 C 95.193 91.575,95.005 91.284,95.005 91.210 C 95.005 90.896,92.585 89.112,91.614 88.710 C 90.448 88.228,88.046 87.997,87.103 88.276 " stroke="none" fill="#f8f5f8" fill-rule="evenodd"></path><path id="path2" d="M209.991 76.727 C 209.991 77.776,210.030 77.897,210.400 77.996 C 210.624 78.057,221.088 78.107,233.651 78.108 C 256.372 78.111,256.494 78.113,256.494 78.474 C 256.494 78.741,256.373 78.837,256.040 78.837 C 255.707 78.837,255.586 78.934,255.586 79.201 C 255.586 79.443,255.465 79.564,255.223 79.564 C 254.956 79.564,254.859 79.685,254.859 80.018 C 254.859 80.381,254.768 80.472,254.405 80.472 C 254.072 80.472,253.951 80.569,253.951 80.836 C 253.951 81.078,253.830 81.199,253.588 81.199 C 253.321 81.199,253.224 81.320,253.224 81.653 C 253.224 81.981,253.127 82.107,252.873 82.107 C 252.680 82.107,252.470 82.271,252.407 82.470 C 252.343 82.670,252.134 82.834,251.941 82.834 C 251.711 82.834,251.589 82.959,251.589 83.197 C 251.589 83.439,251.468 83.560,251.226 83.560 C 250.960 83.560,250.863 83.682,250.863 84.015 C 250.863 84.378,250.772 84.469,250.409 84.469 C 250.076 84.469,249.955 84.566,249.955 84.832 C 249.955 85.074,249.833 85.195,249.591 85.195 C 249.325 85.195,249.228 85.316,249.228 85.649 C 249.228 85.989,249.132 86.104,248.848 86.104 C 248.620 86.104,248.429 86.249,248.372 86.467 C 248.320 86.668,248.125 86.830,247.935 86.830 C 247.714 86.830,247.593 86.959,247.593 87.193 C 247.593 87.436,247.472 87.557,247.230 87.557 C 246.963 87.557,246.866 87.678,246.866 88.011 C 246.866 88.374,246.776 88.465,246.412 88.465 C 246.079 88.465,245.958 88.562,245.958 88.828 C 245.958 89.071,245.837 89.192,245.595 89.192 C 245.328 89.192,245.232 89.313,245.232 89.646 C 245.232 90.009,245.141 90.100,244.777 90.100 C 244.444 90.100,244.323 90.197,244.323 90.463 C 244.323 90.705,244.202 90.827,243.960 90.827 C 243.725 90.827,243.597 90.948,243.597 91.169 C 243.597 91.358,243.434 91.553,243.233 91.606 C 243.016 91.663,242.870 91.854,242.870 92.081 C 242.870 92.366,242.756 92.461,242.416 92.461 C 242.083 92.461,241.962 92.558,241.962 92.825 C 241.962 93.067,241.841 93.188,241.599 93.188 C 241.332 93.188,241.235 93.309,241.235 93.642 C 241.235 94.005,241.144 94.096,240.781 94.096 C 240.448 94.096,240.327 94.193,240.327 94.460 C 240.327 94.702,240.206 94.823,239.964 94.823 C 239.729 94.823,239.600 94.944,239.600 95.165 C 239.600 95.354,239.438 95.550,239.237 95.602 C 239.020 95.659,238.874 95.850,238.874 96.077 C 238.874 96.362,238.759 96.458,238.420 96.458 C 238.087 96.458,237.965 96.555,237.965 96.821 C 237.965 97.063,237.844 97.184,237.602 97.184 C 237.336 97.184,237.239 97.305,237.239 97.639 C 237.239 98.002,237.148 98.093,236.785 98.093 C 236.452 98.093,236.331 98.190,236.331 98.456 C 236.331 98.698,236.210 98.819,235.967 98.819 C 235.729 98.819,235.604 98.940,235.604 99.170 C 235.604 99.363,235.441 99.573,235.241 99.637 C 235.041 99.700,234.877 99.910,234.877 100.103 C 234.877 100.356,234.751 100.454,234.423 100.454 C 234.090 100.454,233.969 100.551,233.969 100.817 C 233.969 101.060,233.848 101.181,233.606 101.181 C 233.339 101.181,233.243 101.302,233.243 101.635 C 233.243 101.998,233.152 102.089,232.788 102.089 C 232.455 102.089,232.334 102.186,232.334 102.452 C 232.334 102.695,232.213 102.816,231.971 102.816 C 231.705 102.816,231.608 102.937,231.608 103.270 C 231.608 103.603,231.511 103.724,231.244 103.724 C 231.002 103.724,230.881 103.845,230.881 104.087 C 230.881 104.354,230.760 104.450,230.427 104.450 C 230.094 104.450,229.973 104.547,229.973 104.814 C 229.973 105.056,229.852 105.177,229.609 105.177 C 229.343 105.177,229.246 105.298,229.246 105.631 C 229.246 105.995,229.155 106.085,228.792 106.085 C 228.459 106.085,228.338 106.182,228.338 106.449 C 228.338 106.691,228.217 106.812,227.975 106.812 C 227.708 106.812,227.611 106.933,227.611 107.266 C 227.611 107.599,227.514 107.720,227.248 107.720 C 227.006 107.720,226.885 107.841,226.885 108.084 C 226.885 108.350,226.764 108.447,226.431 108.447 C 226.097 108.447,225.976 108.544,225.976 108.810 C 225.976 109.052,225.855 109.173,225.613 109.173 C 225.347 109.173,225.250 109.295,225.250 109.628 C 225.250 109.991,225.159 110.082,224.796 110.082 C 224.463 110.082,224.342 110.179,224.342 110.445 C 224.342 110.687,224.220 110.808,223.978 110.808 C 223.712 110.808,223.615 110.929,223.615 111.262 C 223.615 111.596,223.518 111.717,223.252 111.717 C 223.009 111.717,222.888 111.838,222.888 112.080 C 222.888 112.346,222.767 112.443,222.434 112.443 C 222.101 112.443,221.980 112.540,221.980 112.807 C 221.980 113.049,221.859 113.170,221.617 113.170 C 221.350 113.170,221.253 113.291,221.253 113.624 C 221.253 113.987,221.163 114.078,220.799 114.078 C 220.466 114.078,220.345 114.175,220.345 114.441 C 220.345 114.684,220.224 114.805,219.982 114.805 C 219.715 114.805,219.619 114.926,219.619 115.259 C 219.619 115.592,219.522 115.713,219.255 115.713 C 219.013 115.713,218.892 115.834,218.892 116.076 C 218.892 116.343,218.771 116.440,218.438 116.440 C 218.105 116.440,217.984 116.536,217.984 116.803 C 217.984 117.045,217.863 117.166,217.620 117.166 C 217.354 117.166,217.257 117.287,217.257 117.620 C 217.257 117.984,217.166 118.074,216.803 118.074 C 216.470 118.074,216.349 118.171,216.349 118.438 C 216.349 118.680,216.228 118.801,215.985 118.801 C 215.719 118.801,215.622 118.922,215.622 119.255 C 215.622 119.588,215.525 119.709,215.259 119.709 C 214.934 119.709,214.811 119.898,214.874 120.300 C 214.886 120.375,214.691 120.436,214.441 120.436 C 214.108 120.436,213.987 120.533,213.987 120.799 C 213.987 121.041,213.866 121.163,213.624 121.163 C 213.358 121.163,213.261 121.284,213.261 121.617 C 213.261 121.980,213.170 122.071,212.807 122.071 C 212.474 122.071,212.352 122.168,212.352 122.434 C 212.352 122.676,212.231 122.797,211.989 122.797 C 211.723 122.797,211.626 122.919,211.626 123.252 C 211.626 123.591,211.530 123.706,211.245 123.706 C 211.018 123.706,210.827 123.852,210.770 124.069 C 210.718 124.270,210.522 124.432,210.333 124.432 C 210.119 124.432,209.991 124.560,209.991 124.774 C 209.991 124.964,209.829 125.159,209.628 125.212 C 209.410 125.268,209.264 125.459,209.264 125.687 C 209.264 125.974,209.150 126.067,208.800 126.067 C 208.366 126.067,208.339 126.118,208.391 126.839 L 208.447 127.611 234.378 127.657 L 260.309 127.703 260.309 126.431 L 260.309 125.159 237.148 125.159 C 214.108 125.159,213.987 125.157,213.987 124.796 C 213.987 124.553,214.108 124.432,214.351 124.432 C 214.588 124.432,214.714 124.311,214.714 124.082 C 214.714 123.856,214.860 123.710,215.123 123.673 C 215.385 123.636,215.552 123.469,215.589 123.206 C 215.627 122.944,215.773 122.797,215.998 122.797 C 216.223 122.797,216.349 122.672,216.349 122.447 C 216.349 122.221,216.495 122.075,216.757 122.038 C 217.020 122.001,217.187 121.834,217.224 121.571 C 217.262 121.309,217.408 121.163,217.633 121.163 C 217.863 121.163,217.984 121.037,217.984 120.799 C 217.984 120.557,218.105 120.436,218.347 120.436 C 218.585 120.436,218.710 120.315,218.710 120.085 C 218.710 119.860,218.856 119.714,219.119 119.677 C 219.382 119.639,219.548 119.472,219.586 119.210 C 219.623 118.947,219.769 118.801,219.994 118.801 C 220.220 118.801,220.345 118.676,220.345 118.450 C 220.345 118.225,220.491 118.079,220.754 118.042 C 221.017 118.004,221.183 117.838,221.221 117.575 C 221.258 117.312,221.404 117.166,221.629 117.166 C 221.859 117.166,221.980 117.041,221.980 116.803 C 221.980 116.561,222.101 116.440,222.343 116.440 C 222.581 116.440,222.707 116.318,222.707 116.089 C 222.707 115.864,222.853 115.718,223.115 115.680 C 223.378 115.643,223.545 115.476,223.582 115.213 C 223.619 114.951,223.765 114.805,223.991 114.805 C 224.216 114.805,224.342 114.679,224.342 114.454 C 224.342 114.229,224.488 114.083,224.750 114.045 C 225.013 114.008,225.180 113.841,225.217 113.579 C 225.254 113.316,225.400 113.170,225.626 113.170 C 225.855 113.170,225.976 113.044,225.976 112.807 C 225.976 112.569,226.097 112.443,226.327 112.443 C 226.521 112.443,226.729 112.284,226.791 112.089 C 226.853 111.895,227.063 111.685,227.257 111.623 C 227.452 111.561,227.611 111.353,227.611 111.159 C 227.611 110.929,227.737 110.808,227.975 110.808 C 228.212 110.808,228.338 110.687,228.338 110.458 C 228.338 110.232,228.484 110.086,228.747 110.049 C 229.009 110.012,229.176 109.845,229.213 109.582 C 229.251 109.320,229.397 109.173,229.622 109.173 C 229.852 109.173,229.973 109.048,229.973 108.810 C 229.973 108.569,230.094 108.447,230.333 108.447 C 230.565 108.447,230.733 108.286,230.806 107.993 C 230.878 107.709,231.049 107.539,231.264 107.539 C 231.487 107.539,231.608 107.411,231.608 107.175 C 231.608 106.933,231.729 106.812,231.971 106.812 C 232.209 106.812,232.334 106.691,232.334 106.461 C 232.334 106.236,232.480 106.090,232.743 106.053 C 233.006 106.015,233.172 105.848,233.210 105.586 C 233.247 105.323,233.393 105.177,233.618 105.177 C 233.844 105.177,233.969 105.052,233.969 104.826 C 233.969 104.601,234.115 104.455,234.378 104.418 C 234.641 104.380,234.807 104.214,234.845 103.951 C 234.882 103.688,235.028 103.542,235.253 103.542 C 235.483 103.542,235.604 103.417,235.604 103.179 C 235.604 102.937,235.725 102.816,235.967 102.816 C 236.205 102.816,236.331 102.695,236.331 102.465 C 236.331 102.240,236.477 102.094,236.739 102.056 C 237.002 102.019,237.169 101.852,237.206 101.589 C 237.243 101.327,237.389 101.181,237.615 101.181 C 237.840 101.181,237.965 101.055,237.965 100.830 C 237.965 100.605,238.112 100.459,238.374 100.421 C 238.637 100.384,238.804 100.217,238.841 99.955 C 238.878 99.692,239.024 99.546,239.250 99.546 C 239.479 99.546,239.600 99.420,239.600 99.183 C 239.600 98.940,239.721 98.819,239.964 98.819 C 240.202 98.819,240.327 98.698,240.327 98.469 C 240.327 98.243,240.473 98.097,240.736 98.060 C 240.998 98.023,241.165 97.856,241.202 97.593 C 241.240 97.330,241.386 97.184,241.611 97.184 C 241.837 97.184,241.962 97.059,241.962 96.834 C 241.962 96.608,242.108 96.462,242.371 96.425 C 242.633 96.388,242.800 96.221,242.837 95.958 C 242.875 95.696,243.021 95.550,243.246 95.550 C 243.476 95.550,243.597 95.424,243.597 95.186 C 243.597 94.944,243.718 94.823,243.960 94.823 C 244.198 94.823,244.323 94.702,244.323 94.472 C 244.323 94.247,244.469 94.101,244.732 94.063 C 244.995 94.026,245.162 93.859,245.199 93.597 C 245.236 93.334,245.382 93.188,245.608 93.188 C 245.833 93.188,245.958 93.063,245.958 92.837 C 245.958 92.612,246.104 92.466,246.367 92.429 C 246.630 92.391,246.796 92.225,246.834 91.962 C 246.871 91.699,247.017 91.553,247.242 91.553 C 247.472 91.553,247.593 91.428,247.593 91.190 C 247.593 90.948,247.714 90.827,247.956 90.827 C 248.194 90.827,248.320 90.705,248.320 90.476 C 248.320 90.250,248.466 90.104,248.728 90.067 C 248.991 90.030,249.158 89.863,249.195 89.600 C 249.232 89.338,249.379 89.192,249.604 89.192 C 249.829 89.192,249.955 89.066,249.955 88.841 C 249.955 88.616,250.101 88.470,250.363 88.432 C 250.626 88.395,250.793 88.228,250.830 87.965 C 250.867 87.703,251.013 87.557,251.239 87.557 C 251.468 87.557,251.589 87.431,251.589 87.193 C 251.589 86.951,251.711 86.830,251.953 86.830 C 252.191 86.830,252.316 86.709,252.316 86.479 C 252.316 86.254,252.462 86.108,252.725 86.071 C 252.987 86.033,253.154 85.867,253.192 85.604 C 253.229 85.341,253.375 85.195,253.600 85.195 C 253.826 85.195,253.951 85.070,253.951 84.845 C 253.951 84.619,254.097 84.473,254.360 84.436 C 254.622 84.399,254.789 84.232,254.826 83.969 C 254.864 83.706,255.010 83.560,255.235 83.560 C 255.465 83.560,255.586 83.435,255.586 83.197 C 255.586 82.955,255.707 82.834,255.949 82.834 C 256.184 82.834,256.312 82.713,256.312 82.490 C 256.312 82.275,256.482 82.104,256.767 82.033 C 257.060 81.959,257.221 81.791,257.221 81.559 C 257.221 81.320,257.343 81.199,257.584 81.199 C 257.822 81.199,257.947 81.078,257.947 80.848 C 257.947 80.623,258.093 80.477,258.356 80.440 C 258.619 80.402,258.786 80.235,258.823 79.973 C 258.860 79.710,259.006 79.564,259.232 79.564 C 259.461 79.564,259.582 79.439,259.582 79.201 C 259.582 78.959,259.703 78.837,259.946 78.837 C 260.212 78.837,260.309 78.716,260.309 78.383 C 260.309 78.020,260.400 77.929,260.763 77.929 C 261.096 77.929,261.217 77.832,261.217 77.566 C 261.217 77.324,261.338 77.203,261.580 77.203 C 261.890 77.203,261.944 77.081,261.944 76.385 L 261.944 75.568 235.967 75.568 L 209.991 75.568 209.991 76.727 M354.889 75.689 C 354.823 75.755,354.768 87.281,354.768 101.302 L 354.768 126.794 355.949 126.794 L 357.130 126.794 357.130 115.168 L 357.130 103.542 358.401 103.542 C 359.637 103.542,359.673 103.555,359.673 103.996 C 359.673 104.403,359.747 104.450,360.378 104.450 C 360.931 104.450,361.104 104.529,361.179 104.814 C 361.234 105.026,361.427 105.177,361.642 105.177 C 361.885 105.177,362.029 105.316,362.067 105.586 C 362.116 105.926,362.256 106.004,362.897 106.050 C 363.522 106.096,363.669 106.174,363.669 106.459 C 363.669 106.691,363.794 106.812,364.033 106.812 C 364.275 106.812,364.396 106.933,364.396 107.175 C 364.396 107.478,364.517 107.539,365.127 107.539 C 365.740 107.539,365.886 107.612,366.031 107.993 C 366.176 108.373,366.322 108.447,366.935 108.447 C 367.545 108.447,367.666 108.507,367.666 108.810 C 367.666 109.048,367.787 109.173,368.016 109.173 C 368.242 109.173,368.388 109.320,368.425 109.582 C 368.473 109.922,368.613 110.000,369.255 110.047 C 369.879 110.092,370.027 110.170,370.027 110.455 C 370.027 110.753,370.156 110.808,370.845 110.808 C 371.532 110.808,371.662 110.864,371.662 111.159 C 371.662 111.353,371.817 111.560,372.006 111.620 C 372.195 111.680,372.392 111.889,372.443 112.086 C 372.517 112.368,372.693 112.443,373.280 112.443 C 373.903 112.443,374.024 112.502,374.024 112.807 C 374.024 113.042,374.145 113.170,374.367 113.170 C 374.582 113.170,374.753 113.340,374.825 113.624 C 374.923 114.013,375.042 114.078,375.662 114.078 C 376.264 114.078,376.385 114.139,376.385 114.441 C 376.385 114.751,376.506 114.805,377.203 114.805 C 377.911 114.805,378.020 114.855,378.020 115.185 C 378.020 115.410,378.166 115.603,378.377 115.659 C 378.574 115.710,378.784 115.907,378.844 116.096 C 378.926 116.356,379.126 116.440,379.667 116.440 C 380.260 116.440,380.381 116.501,380.381 116.803 C 380.381 117.069,380.503 117.166,380.836 117.166 C 381.160 117.166,381.290 117.264,381.290 117.510 C 381.290 117.883,381.626 118.074,382.282 118.074 C 382.548 118.074,382.735 118.207,382.796 118.438 C 382.871 118.725,383.043 118.801,383.622 118.801 C 384.241 118.801,384.361 118.863,384.411 119.210 C 384.448 119.472,384.615 119.639,384.877 119.677 C 385.140 119.714,385.286 119.860,385.286 120.085 C 385.286 120.373,385.416 120.436,386.013 120.436 C 386.618 120.436,386.739 120.497,386.739 120.799 C 386.739 121.109,386.860 121.163,387.557 121.163 C 388.308 121.163,388.374 121.200,388.374 121.617 C 388.374 121.980,388.465 122.071,388.828 122.071 C 389.161 122.071,389.282 122.168,389.282 122.434 C 389.282 122.736,389.404 122.797,389.996 122.797 C 390.599 122.797,390.720 122.861,390.768 123.206 C 390.806 123.469,390.973 123.636,391.235 123.673 C 391.498 123.710,391.644 123.856,391.644 124.082 C 391.644 124.392,391.779 124.432,392.825 124.432 C 393.860 124.432,394.005 124.390,394.005 124.090 C 394.005 123.901,394.168 123.706,394.369 123.653 C 394.657 123.578,394.732 123.405,394.732 122.814 C 394.732 122.192,394.673 122.071,394.369 122.071 C 394.134 122.071,394.005 121.950,394.005 121.729 C 394.005 121.380,393.548 121.170,392.779 121.165 C 392.493 121.163,392.371 121.054,392.371 120.799 C 392.371 120.565,392.249 120.436,392.028 120.436 C 391.839 120.436,391.644 120.274,391.591 120.073 C 391.516 119.784,391.344 119.709,390.753 119.709 C 390.081 119.709,390.009 119.666,390.009 119.255 C 390.009 118.838,389.942 118.801,389.192 118.801 C 388.495 118.801,388.374 118.747,388.374 118.438 C 388.374 118.196,388.253 118.074,388.011 118.074 C 387.811 118.074,387.648 117.955,387.648 117.808 C 387.648 117.474,387.088 117.166,386.479 117.166 C 386.134 117.166,386.013 117.072,386.013 116.803 C 386.013 116.536,385.892 116.440,385.559 116.440 C 385.226 116.440,385.104 116.343,385.104 116.076 C 385.104 115.775,384.983 115.713,384.398 115.713 C 383.795 115.713,383.674 115.646,383.577 115.259 C 383.479 114.870,383.359 114.805,382.740 114.805 C 382.137 114.805,382.016 114.744,382.016 114.441 C 382.016 114.178,381.895 114.078,381.575 114.078 C 381.255 114.078,381.117 113.965,381.075 113.669 C 381.029 113.341,380.883 113.250,380.336 113.204 C 379.802 113.160,379.655 113.072,379.655 112.796 C 379.655 112.499,379.525 112.443,378.837 112.443 C 378.141 112.443,378.020 112.389,378.020 112.080 C 378.020 111.814,377.899 111.717,377.566 111.717 C 377.203 111.717,377.112 111.626,377.112 111.262 C 377.112 110.854,377.039 110.808,376.385 110.808 C 375.780 110.808,375.658 110.748,375.658 110.445 C 375.658 110.181,375.537 110.082,375.217 110.082 C 374.897 110.082,374.759 109.969,374.717 109.673 C 374.669 109.333,374.529 109.255,373.887 109.208 C 373.263 109.163,373.115 109.085,373.115 108.800 C 373.115 108.509,372.987 108.447,372.389 108.447 C 371.783 108.447,371.662 108.386,371.662 108.084 C 371.662 107.820,371.541 107.720,371.221 107.720 C 370.901 107.720,370.763 107.607,370.721 107.312 C 370.673 106.972,370.533 106.893,369.891 106.847 C 369.267 106.802,369.119 106.724,369.119 106.438 C 369.119 106.206,368.994 106.085,368.756 106.085 C 368.521 106.085,368.392 105.964,368.392 105.743 C 368.392 105.395,367.935 105.184,367.166 105.180 C 366.879 105.178,366.757 105.069,366.757 104.814 C 366.757 104.504,366.636 104.450,365.940 104.450 C 365.254 104.450,365.123 104.394,365.123 104.100 C 365.123 103.881,364.969 103.720,364.714 103.670 C 364.489 103.627,371.151 103.581,379.519 103.567 L 394.732 103.542 394.732 89.555 L 394.732 75.568 374.871 75.568 C 363.948 75.568,354.956 75.622,354.889 75.689 M147.684 101.635 L 147.684 126.794 152.044 126.794 L 156.403 126.794 156.403 120.799 L 156.403 114.805 174.024 114.805 L 191.644 114.805 191.644 120.799 L 191.644 126.794 196.004 126.794 L 200.363 126.794 200.363 101.635 L 200.363 76.476 174.024 76.476 L 147.684 76.476 147.684 101.635 M282.834 101.635 L 282.834 126.794 287.193 126.794 L 291.553 126.794 291.553 120.799 L 291.553 114.805 311.172 114.805 L 330.790 114.805 330.790 120.799 L 330.790 126.794 335.150 126.794 L 339.510 126.794 339.510 101.635 L 339.510 76.476 311.172 76.476 L 282.834 76.476 282.834 101.635 M392.371 89.646 L 392.371 101.181 376.385 101.181 C 360.521 101.181,360.400 101.178,360.400 100.817 C 360.400 100.508,360.279 100.454,359.582 100.454 C 358.886 100.454,358.765 100.400,358.765 100.091 C 358.765 99.886,358.644 99.728,358.488 99.728 C 358.335 99.728,358.133 99.523,358.038 99.273 C 357.932 98.995,357.723 98.819,357.498 98.819 C 357.133 98.819,357.130 98.740,357.130 88.465 L 357.130 78.111 374.750 78.111 L 392.371 78.111 392.371 89.646 M191.644 97.184 L 191.644 109.173 174.024 109.173 L 156.403 109.173 156.403 97.184 L 156.403 85.195 174.024 85.195 L 191.644 85.195 191.644 97.184 M330.790 97.184 L 330.790 109.173 311.172 109.173 L 291.553 109.173 291.553 97.184 L 291.553 85.195 311.172 85.195 L 330.790 85.195 330.790 97.184 " stroke="none" fill="#040404" fill-rule="evenodd"></path><path id="path3" d="M86.162 87.857 C 85.945 87.904,85.669 88.060,85.550 88.203 C 85.430 88.347,85.233 88.465,85.111 88.465 C 84.388 88.465,81.381 91.396,81.381 92.101 C 81.381 92.285,81.246 92.570,81.081 92.735 C 80.681 93.135,80.488 94.226,80.488 96.094 C 80.488 97.963,80.681 99.053,81.081 99.454 C 81.246 99.619,81.381 99.863,81.381 99.998 C 81.381 100.594,84.117 103.294,84.894 103.465 C 85.207 103.534,85.559 103.722,85.677 103.884 C 86.035 104.374,91.253 104.425,91.902 103.945 C 92.164 103.751,92.549 103.539,92.759 103.472 C 92.969 103.406,93.286 103.190,93.465 102.993 C 93.643 102.795,93.879 102.632,93.988 102.630 C 94.098 102.628,94.473 102.289,94.823 101.878 C 95.173 101.467,95.595 100.999,95.762 100.838 C 95.929 100.677,96.125 100.300,96.198 100.000 C 96.272 99.700,96.483 99.260,96.667 99.022 C 97.171 98.371,97.169 93.450,96.664 92.804 C 96.478 92.566,96.272 92.197,96.206 91.986 C 96.139 91.774,95.924 91.455,95.727 91.276 C 95.529 91.098,95.368 90.851,95.368 90.728 C 95.368 90.606,95.184 90.384,94.959 90.235 C 94.734 90.087,94.228 89.668,93.834 89.306 C 93.440 88.943,92.981 88.647,92.814 88.647 C 92.647 88.647,92.277 88.463,91.991 88.238 C 91.480 87.835,87.476 87.573,86.162 87.857 M91.614 88.710 C 92.585 89.112,95.005 90.896,95.005 91.210 C 95.005 91.284,95.193 91.575,95.424 91.857 C 96.542 93.225,97.011 96.438,96.347 98.183 C 96.195 98.583,96.022 99.074,95.962 99.273 C 95.526 100.728,93.092 102.885,91.147 103.540 C 85.215 105.539,79.080 99.204,81.383 93.458 C 82.445 90.807,84.335 89.095,87.103 88.276 C 88.046 87.997,90.448 88.228,91.614 88.710 " stroke="none" fill="#b179a9" fill-rule="evenodd"></path><path id="path4" d="" stroke="none" fill="#208480" fill-rule="evenodd"></path></g></svg>